<?xml version="1.0" encoding="utf-8"?>
<!-- Generator: Adobe Illustrator 26.0.3, SVG Export Plug-In . SVG Version: 6.00 Build 0)  -->
<svg version="1.1" id="Layer_1" xmlns="http://www.w3.org/2000/svg" xmlns:xlink="http://www.w3.org/1999/xlink" x="0px" y="0px"
	 viewBox="0 0 512 512" style="enable-background:new 0 0 512 512;" xml:space="preserve">
<style type="text/css">
	.st0{fill:#FDC68B;}
	.st1{fill:#FF5596;}
	.st2{fill:#FFFFFF;}
	.st3{fill:#99DDFF;}
	.st4{fill:#65FCA5;}
</style>
<g>
	<path class="st0" d="M256,0C114.6,0,0,114.6,0,256s114.6,256,256,256s256-114.6,256-256S397.4,0,256,0z M256,333.5
		c-42.8,0-77.5-34.7-77.5-77.5s34.7-77.5,77.5-77.5s77.5,34.7,77.5,77.5S298.8,333.5,256,333.5z"/>
	<path class="st1" d="M256.5,0C117.1-0.3,2.4,112.1,0,251.5c-0.8,46,10.6,89.3,31.1,126.9c2.7,4.9,10.1,3,10.1-2.6
		c0-16.9,13.7-30.7,30.7-30.7s30.7,13.7,30.7,30.7v23.4c0,16.9,13.7,30.7,30.7,30.7c16.9,0,30.7-13.7,30.7-30.7v-4.9
		c0-16.9,13.7-30.7,30.7-30.7c16.9,0,30.7,13.7,30.7,30.7V440c0,16.9,13.7,30.7,30.7,30.7c16.9,0,30.7-13.7,30.7-30.7v-45.6
		c0-16.9,13.7-30.7,30.7-30.7s30.7,13.7,30.7,30.7v4.9c0,16.9,13.7,30.7,30.7,30.7c16.9,0,30.7-13.7,30.7-30.7v-23.4
		c0-16.9,13.7-30.7,30.7-30.7c16.9,0,30.7,13.7,30.7,30.7c0,5.5,7.4,7.5,10.1,2.6C500.7,342,512,300.3,512,256
		C512,114.8,397.7,0.3,256.5,0z M256,333.5c-42.8,0-77.5-34.7-77.5-77.5s34.7-77.5,77.5-77.5s77.5,34.7,77.5,77.5
		S298.8,333.5,256,333.5z"/>
</g>
<path class="st2" d="M399.6,137.1l-40.2,40.2c-4.2,4.2-4.2,11,0,15.3l2,2c4.2,4.2,11,4.2,15.3,0l40.2-40.2c4.2-4.2,4.2-11,0-15.3
	l-2-2C410.7,132.8,403.8,132.8,399.6,137.1z"/>
<path class="st3" d="M306.7,100.5l-40.2-40.2c-4.2-4.2-11-4.2-15.3,0l-2,2c-4.2,4.2-4.2,11,0,15.3l40.2,40.2c4.2,4.2,11,4.2,15.3,0
	l2-2C311,111.5,311,104.7,306.7,100.5z"/>
<path class="st2" d="M178.5,57.8c6.8,0,12.2-5.5,12.2-12.2l0-37.1c-8.3,2.2-16.5,4.8-24.4,7.8l0,29.3
	C166.3,52.3,171.8,57.8,178.5,57.8L178.5,57.8z"/>
<path class="st4" d="M424.6,301.3l-40.2-40.2c-4.2-4.2-11-4.2-15.3,0l-2,2c-4.2,4.2-4.2,11,0,15.3l40.2,40.2c4.2,4.2,11,4.2,15.3,0
	l2-2C428.8,312.3,428.8,305.5,424.6,301.3z"/>
<path class="st3" d="M55.8,96.7c-5.1,6.4-10,13.1-14.5,20.1l20,20c4.8,4.8,12.5,4.8,17.3,0v0c4.8-4.8,4.8-12.5,0-17.3L55.8,96.7z"/>
<path class="st4" d="M155.2,142.9L115.1,183c-4.2,4.2-4.2,11,0,15.3l2,2c4.2,4.2,11,4.2,15.3,0l40.2-40.2c4.2-4.2,4.2-11,0-15.3
	l-2-2C166.3,138.7,159.4,138.7,155.2,142.9z"/>
<path class="st2" d="M61.7,297.2l56.8,0c6,0,10.8-4.8,10.8-10.8v-2.9c0-6-4.8-10.8-10.8-10.8l-56.8,0c-6,0-10.8,4.8-10.8,10.8l0,2.9
	C50.9,292.4,55.8,297.2,61.7,297.2z"/>
<path class="st4" d="M415.1,55.4H398c-6.8,0-12.2,5.5-12.2,12.2v0c0,6.8,5.5,12.2,12.2,12.2l43.7,0C433.5,71.1,424.6,63,415.1,55.4z
	"/>
<path class="st3" d="M485.1,269.2l26.6-26.6c-0.5-10.4-1.7-20.6-3.4-30.6c-0.8,0.5-1.6,1.1-2.3,1.8l-38.1,38.1
	c-4.8,4.8-4.8,12.5,0,17.3C472.5,274,480.3,274,485.1,269.2z"/>
</svg>
